<?xml version="1.0" standalone="no"?>
<!DOCTYPE svg PUBLIC "-//W3C//DTD SVG 20010904//EN"
 "http://www.w3.org/TR/2001/REC-SVG-20010904/DTD/svg10.dtd">
<svg version="1.0" xmlns="http://www.w3.org/2000/svg"
 width="512.000000pt" height="512.000000pt" viewBox="0 0 512.000000 512.000000"
 preserveAspectRatio="xMidYMid meet">

<g transform="translate(0.000000,512.000000) scale(0.100000,-0.100000)"
fill="#000000" stroke="none">
<path d="M2202 4203 c-41 -36 -2182 -2904 -2182 -2923 0 -11 9 -29 20 -40 20
-20 33 -20 2520 -20 2487 0 2500 0 2520 20 11 11 20 29 20 40 0 31 -1457 1969
-1486 1976 -14 4 -33 0 -44 -7 -11 -8 -78 -93 -150 -189 -72 -96 -135 -175
-140 -175 -5 0 -230 295 -500 655 -270 360 -498 661 -507 668 -23 17 -47 15
-71 -5z m87 -345 c36 -95 66 -179 69 -185 3 -10 -22 -13 -107 -13 -98 0 -113
-2 -131 -20 -11 -11 -20 -29 -20 -40 0 -11 9 -29 20 -40 18 -18 33 -20 154
-20 118 0 135 -2 141 -17 27 -71 305 -814 305 -818 0 -3 -76 -5 -170 -5 -157
0 -172 -2 -190 -20 -11 -11 -20 -29 -20 -40 0 -11 9 -29 20 -40 19 -19 33 -20
214 -20 l195 0 19 -52 c11 -29 32 -84 47 -123 14 -38 24 -77 22 -86 -2 -8
-167 -232 -366 -497 l-361 -482 -965 0 -965 0 255 340 255 340 215 0 c202 0
216 1 235 20 11 11 20 29 20 40 0 11 -9 29 -20 40 -18 18 -33 20 -190 20
l-170 0 707 945 c390 519 710 944 713 945 3 0 34 -78 69 -172z m550 -595 c198
-266 361 -486 361 -489 0 -15 -245 -333 -251 -326 -4 4 -104 268 -224 587
-288 770 -278 742 -262 725 8 -8 177 -232 376 -497z m1005 -885 c143 -381 261
-699 264 -705 3 -10 -45 -13 -222 -13 -213 0 -227 -1 -246 -20 -11 -11 -20
-29 -20 -40 0 -11 9 -29 20 -40 19 -19 33 -20 269 -20 l249 0 30 -77 c16 -43
32 -88 36 -100 l7 -23 -975 0 -976 0 225 300 225 300 165 0 c152 0 167 2 185
20 11 11 20 29 20 40 0 11 -9 29 -20 40 -18 18 -33 20 -140 20 l-120 0 377
505 c208 277 380 504 383 505 3 0 122 -312 264 -692z m535 -315 l541 -723
-279 0 c-256 0 -279 1 -286 18 -26 65 -215 573 -215 577 0 3 27 5 60 5 65 0
100 21 100 60 0 11 -9 29 -20 40 -17 17 -33 20 -104 20 -71 0 -85 3 -91 18
-11 28 -214 570 -247 657 -16 46 -23 74 -15 65 8 -8 258 -340 556 -737z"/>
<path d="M1640 3080 c-11 -11 -20 -29 -20 -40 0 -11 9 -29 20 -40 18 -18 33
-20 160 -20 127 0 142 2 160 20 11 11 20 29 20 40 0 11 -9 29 -20 40 -18 18
-33 20 -160 20 -127 0 -142 -2 -160 -20z"/>
<path d="M1880 2680 c-11 -11 -20 -29 -20 -40 0 -11 9 -29 20 -40 17 -17 33
-20 120 -20 87 0 103 3 120 20 11 11 20 29 20 40 0 11 -9 29 -20 40 -17 17
-33 20 -120 20 -87 0 -103 -3 -120 -20z"/>
<path d="M1320 2120 c-11 -11 -20 -29 -20 -40 0 -11 9 -29 20 -40 17 -17 33
-20 120 -20 87 0 103 3 120 20 11 11 20 29 20 40 0 11 -9 29 -20 40 -17 17
-33 20 -120 20 -87 0 -103 -3 -120 -20z"/>
<path d="M1720 1720 c-11 -11 -20 -29 -20 -40 0 -11 9 -29 20 -40 19 -19 33
-20 200 -20 167 0 181 1 200 20 11 11 20 29 20 40 0 11 -9 29 -20 40 -19 19
-33 20 -200 20 -167 0 -181 -1 -200 -20z"/>
<path d="M3320 2520 c-11 -11 -20 -29 -20 -40 0 -11 9 -29 20 -40 18 -18 33
-20 160 -20 127 0 142 2 160 20 11 11 20 29 20 40 0 11 -9 29 -20 40 -18 18
-33 20 -160 20 -127 0 -142 -2 -160 -20z"/>
<path d="M3240 2040 c-11 -11 -20 -29 -20 -40 0 -11 9 -29 20 -40 17 -17 33
-20 120 -20 87 0 103 3 120 20 11 11 20 29 20 40 0 11 -9 29 -20 40 -17 17
-33 20 -120 20 -87 0 -103 -3 -120 -20z"/>
</g>
</svg>
