<?xml version="1.0" standalone="no"?>
<!DOCTYPE svg PUBLIC "-//W3C//DTD SVG 20010904//EN"
 "http://www.w3.org/TR/2001/REC-SVG-20010904/DTD/svg10.dtd">
<svg version="1.0" xmlns="http://www.w3.org/2000/svg"
 width="512.000000pt" height="512.000000pt" viewBox="0 0 512.000000 512.000000"
 preserveAspectRatio="xMidYMid meet">

<g transform="translate(0.000000,512.000000) scale(0.100000,-0.100000)"
fill="#000000" stroke="none">
<path d="M2328 4095 c17 -44 148 -395 292 -780 145 -385 267 -711 272 -724 8
-22 21 -8 154 170 80 107 148 199 151 206 4 9 -835 1142 -884 1193 -8 9 -1
-19 15 -65z"/>
<path d="M1407 3150 l-757 -1010 245 0 c232 0 246 -1 265 -20 25 -25 25 -55 0
-80 -19 -19 -33 -20 -310 -20 l-290 0 -270 -360 c-149 -198 -270 -369 -270
-380 0 -11 9 -29 20 -40 20 -20 33 -20 935 -20 l915 0 460 613 c253 338 460
619 460 625 0 6 -9 36 -21 67 l-20 55 -195 0 c-181 0 -195 1 -214 20 -11 11
-20 29 -20 40 0 11 9 29 20 40 18 18 33 20 190 20 94 0 170 2 170 5 0 4 -278
747 -305 818 -6 15 -23 17 -141 17 -121 0 -136 2 -154 20 -11 11 -20 29 -20
40 0 11 9 29 20 40 18 18 33 20 131 20 85 0 110 3 107 13 -45 128 -183 487
-187 487 -3 0 -347 -454 -764 -1010z m553 -70 c11 -11 20 -29 20 -40 0 -11 -9
-29 -20 -40 -18 -18 -33 -20 -160 -20 -127 0 -142 2 -160 20 -11 11 -20 29
-20 40 0 11 9 29 20 40 18 18 33 20 160 20 127 0 142 -2 160 -20z m160 -400
c11 -11 20 -29 20 -40 0 -11 -9 -29 -20 -40 -17 -17 -33 -20 -120 -20 -87 0
-103 3 -120 20 -11 11 -20 29 -20 40 0 11 9 29 20 40 17 17 33 20 120 20 87 0
103 -3 120 -20z m-560 -560 c11 -11 20 -29 20 -40 0 -11 -9 -29 -20 -40 -17
-17 -33 -20 -120 -20 -87 0 -103 3 -120 20 -11 11 -20 29 -20 40 0 11 9 29 20
40 17 17 33 20 120 20 87 0 103 -3 120 -20z m560 -400 c11 -11 20 -29 20 -40
0 -11 -9 -29 -20 -40 -19 -19 -33 -20 -200 -20 -167 0 -181 1 -200 20 -11 11
-20 29 -20 40 0 11 9 29 20 40 19 19 33 20 200 20 167 0 181 -1 200 -20z"/>
<path d="M3688 3135 c32 -86 386 -1028 397 -1057 6 -15 20 -18 91 -18 71 0 87
-3 104 -20 11 -11 20 -29 20 -40 0 -39 -35 -60 -101 -60 -45 0 -60 -3 -57 -12
3 -7 63 -169 134 -360 l129 -348 328 0 c314 0 328 1 347 20 11 11 20 29 20 40
0 16 -1374 1865 -1427 1920 -8 9 -2 -19 15 -65z"/>
<path d="M3097 2630 l-427 -570 195 0 c182 0 196 -1 215 -20 11 -11 20 -29 20
-40 0 -11 -9 -29 -20 -40 -19 -19 -33 -20 -260 -20 l-240 0 -270 -360 -270
-360 1120 0 1120 0 -11 28 c-6 15 -30 79 -54 142 -24 63 -46 123 -50 133 -7
16 -28 17 -256 17 -236 0 -250 1 -269 20 -11 11 -20 29 -20 40 0 11 9 29 20
40 19 19 33 20 246 20 177 0 225 3 222 13 -47 135 -573 1527 -577 1527 -3 0
-198 -256 -434 -570z m543 -110 c11 -11 20 -29 20 -40 0 -11 -9 -29 -20 -40
-18 -18 -33 -20 -160 -20 -127 0 -142 2 -160 20 -11 11 -20 29 -20 40 0 11 9
29 20 40 18 18 33 20 160 20 127 0 142 -2 160 -20z m-160 -480 c11 -11 20 -29
20 -40 0 -11 -9 -29 -20 -40 -17 -17 -33 -20 -120 -20 -87 0 -103 3 -120 20
-11 11 -20 29 -20 40 0 11 9 29 20 40 17 17 33 20 120 20 87 0 103 -3 120 -20z"/>
</g>
</svg>
